<svg width="55" height="55" viewBox="0 0 55 55" fill="none" xmlns="http://www.w3.org/2000/svg">
<g clip-path="url(#clip0_386_10181)">
<path d="M6.85186 40.078C0.935068 30.7727 2.08086 18.3285 10.2704 10.212C19.7937 0.795235 35.2525 0.795235 44.7757 10.212" stroke="#006341" stroke-width="5.10714" stroke-miterlimit="10"/>
<path d="M48.1294 14.9351C54.0464 24.2403 52.9006 36.6845 44.6919 44.8011C35.1684 54.2178 19.7279 54.2178 10.2043 44.8011" stroke="#006341" stroke-width="5.10714" stroke-miterlimit="10"/>
<path d="M14.139 42.4292H7.85327V48.7149" fill="#006341"/>
<path d="M40.0681 11.7167L46.2856 12.6396L47.2086 6.42207" fill="#006341"/>
</g>
<path d="M34.5084 17.5704L27.2915 24.7231H40.0715C38.2673 26.5113 33.7567 31.1308 26.3894 38.2835L24.7355 40.0716L21.2774 36.6443C21.7285 36.1973 24.1341 33.813 28.4943 29.4916H15.7144C17.5186 27.7034 22.0292 23.233 29.3965 15.9312L31.0503 14.1431L34.5084 17.5704Z" fill="#006341"/>
<defs>
<clipPath id="clip0_386_10181">
<rect width="55" height="55" fill="white"/>
</clipPath>
</defs>
</svg>
