<svg width="55" height="55" viewBox="0 0 55 55" fill="none" xmlns="http://www.w3.org/2000/svg">
<g clip-path="url(#clip0_386_10173)">
<path d="M26.409 25.8505C26.409 25.8505 36.2213 27.3843 40.3114 39.0843M30.7744 17.6703C39.2889 23.0975 37.6568 33.7357 37.6568 33.7357C37.6568 33.7357 27.8445 38.7107 20.9228 34.7189C14.0011 30.7271 13.3325 18.9681 13.3325 18.9681C13.3325 18.9681 24.0297 13.3836 30.7548 17.6703H30.7744Z" stroke="#006341" stroke-width="3.92857" stroke-miterlimit="10"/>
<path d="M6.85186 40.078C0.935068 30.7727 2.08086 18.3285 10.2704 10.212C19.7937 0.795235 35.2525 0.795235 44.7757 10.212" stroke="#006341" stroke-width="5.10714" stroke-miterlimit="10"/>
<path d="M48.1294 14.9351C54.0464 24.2403 52.9006 36.6845 44.6919 44.8011C35.1684 54.2178 19.7279 54.2178 10.2043 44.8011" stroke="#006341" stroke-width="5.10714" stroke-miterlimit="10"/>
<path d="M14.139 42.4292H7.85327V48.7149" fill="#006341"/>
<path d="M40.0681 11.7167L46.2856 12.6396L47.2086 6.42207" fill="#006341"/>
</g>
<defs>
<clipPath id="clip0_386_10173">
<rect width="55" height="55" fill="white"/>
</clipPath>
</defs>
</svg>
