<svg width="55" height="55" viewBox="0 0 55 55" fill="none" xmlns="http://www.w3.org/2000/svg">
<g clip-path="url(#clip0_386_10165)">
<path d="M40.4701 40.1997C43.6184 40.1997 46.3022 39.0987 48.487 36.931C50.6719 34.7462 51.7729 32.0796 51.7729 28.9313C51.7729 25.7831 50.6719 23.1165 48.487 20.9317C46.3022 18.7468 43.6184 17.663 40.4701 17.663C37.3219 17.663 34.6381 18.7468 32.4532 20.9317C30.2684 23.1165 29.1673 25.7831 29.1673 28.9313C29.1673 32.0796 30.2684 34.7462 32.4532 36.931C34.6381 39.1159 37.3219 40.1997 40.4701 40.1997ZM40.4701 43.0211C38.5089 43.0211 36.6853 42.6598 34.965 41.9201C33.2446 41.1803 31.7479 40.1825 30.4748 38.9094C29.2017 37.6364 28.2039 36.1569 27.4642 34.4365C26.7244 32.7161 26.3459 30.8926 26.3459 28.9485C26.3459 27.0045 26.7244 25.1637 27.4642 23.4606C28.2039 21.7574 29.2017 20.2607 30.4748 18.9876C31.7479 17.7146 33.2446 16.7168 34.965 15.977C36.6853 15.2373 38.5261 14.876 40.4701 14.876C42.4141 14.876 44.2549 15.2373 45.9753 15.977C47.6956 16.7168 49.1924 17.7146 50.4654 18.9876C51.7385 20.2607 52.7363 21.7402 53.4933 23.4606C54.2502 25.181 54.6115 27.0045 54.6115 28.9485C54.6115 30.8926 54.2502 32.7333 53.4933 34.4365C52.7535 36.1569 51.7385 37.6364 50.4654 38.9094C49.1924 40.1825 47.6956 41.1803 45.9753 41.9201C44.2549 42.6598 42.4141 43.0211 40.4701 43.0211ZM39.1971 38.789H41.6744V37.0343C42.8442 36.8278 43.8592 36.3633 44.7022 35.658C45.5452 34.9526 45.9753 33.9032 45.9753 32.5269C45.9753 31.5463 45.7 30.6345 45.1323 29.8087C44.5646 28.983 43.4464 28.2776 41.7432 27.6583C40.3325 27.1938 39.3519 26.7809 38.8186 26.4196C38.2853 26.0755 38.01 25.5938 38.01 24.9745C38.01 24.3552 38.2337 23.8735 38.6637 23.5294C39.0938 23.1853 39.7304 22.9961 40.5561 22.9961C41.3131 22.9961 41.898 23.1853 42.3281 23.5466C42.7582 23.9079 43.0507 24.3552 43.2399 24.9057L45.4936 23.9939C45.2355 23.1681 44.7538 22.4628 44.0657 21.8434C43.3775 21.2413 42.6034 20.8972 41.7604 20.8284V19.0737H39.2831V20.8284C38.1132 21.0865 37.1842 21.6026 36.5305 22.3768C35.8768 23.1509 35.5499 24.0283 35.5499 24.9917C35.5499 26.0927 35.8768 26.9873 36.5133 27.6755C37.1498 28.3636 38.182 28.9485 39.5583 29.4302C41.0378 29.9636 42.0701 30.4453 42.655 30.8754C43.2227 31.2882 43.5152 31.856 43.5152 32.5269C43.5152 33.3011 43.2399 33.8688 42.6894 34.2301C42.1389 34.5913 41.4679 34.7806 40.6938 34.7806C39.9196 34.7806 39.2315 34.5397 38.6293 34.058C38.0272 33.5763 37.5799 32.8538 37.3047 31.8904L34.965 32.8022C35.2918 33.9204 35.8079 34.8322 36.4961 35.5375C37.1842 36.2257 38.096 36.7074 39.1971 36.9654V38.8062V38.789Z" fill="#006341"/>
<path d="M40.4701 40.1997C43.6184 40.1997 46.3022 39.0987 48.487 36.931C50.6719 34.7462 51.7729 32.0796 51.7729 28.9313C51.7729 25.7831 50.6719 23.1165 48.487 20.9317C46.3022 18.7468 43.6184 17.663 40.4701 17.663C37.3219 17.663 34.6381 18.7468 32.4532 20.9317C30.2684 23.1165 29.1673 25.7831 29.1673 28.9313C29.1673 32.0796 30.2684 34.7462 32.4532 36.931C34.6381 39.1159 37.3219 40.1997 40.4701 40.1997ZM40.4701 43.0211C38.5089 43.0211 36.6853 42.6598 34.965 41.9201C33.2446 41.1803 31.7479 40.1825 30.4748 38.9094C29.2017 37.6364 28.2039 36.1569 27.4642 34.4365C26.7244 32.7161 26.3459 30.8926 26.3459 28.9485C26.3459 27.0045 26.7244 25.1637 27.4642 23.4606C28.2039 21.7574 29.2017 20.2607 30.4748 18.9876C31.7479 17.7146 33.2446 16.7168 34.965 15.977C36.6853 15.2373 38.5261 14.876 40.4701 14.876C42.4141 14.876 44.2549 15.2373 45.9753 15.977C47.6956 16.7168 49.1924 17.7146 50.4654 18.9876C51.7385 20.2607 52.7363 21.7402 53.4933 23.4606C54.2502 25.181 54.6115 27.0045 54.6115 28.9485C54.6115 30.8926 54.2502 32.7333 53.4933 34.4365C52.7535 36.1569 51.7385 37.6364 50.4654 38.9094C49.1924 40.1825 47.6956 41.1803 45.9753 41.9201C44.2549 42.6598 42.4141 43.0211 40.4701 43.0211ZM39.1971 38.789H41.6744V37.0343C42.8442 36.8278 43.8592 36.3633 44.7022 35.658C45.5452 34.9526 45.9753 33.9032 45.9753 32.5269C45.9753 31.5463 45.7 30.6345 45.1323 29.8087C44.5646 28.983 43.4464 28.2776 41.7432 27.6583C40.3325 27.1938 39.3519 26.7809 38.8186 26.4196C38.2853 26.0755 38.01 25.5938 38.01 24.9745C38.01 24.3552 38.2337 23.8735 38.6637 23.5294C39.0938 23.1853 39.7304 22.9961 40.5561 22.9961C41.3131 22.9961 41.898 23.1853 42.3281 23.5466C42.7582 23.9079 43.0507 24.3552 43.2399 24.9057L45.4936 23.9939C45.2355 23.1681 44.7538 22.4628 44.0657 21.8434C43.3775 21.2413 42.6034 20.8972 41.7604 20.8284V19.0737H39.2831V20.8284C38.1132 21.0865 37.1842 21.6026 36.5305 22.3768C35.8768 23.1509 35.5499 24.0283 35.5499 24.9917C35.5499 26.0927 35.8768 26.9873 36.5133 27.6755C37.1498 28.3636 38.182 28.9485 39.5583 29.4302C41.0378 29.9636 42.0701 30.4453 42.655 30.8754C43.2227 31.2882 43.5152 31.856 43.5152 32.5269C43.5152 33.3011 43.2399 33.8688 42.6894 34.2301C42.1389 34.5913 41.4679 34.7806 40.6938 34.7806C39.9196 34.7806 39.2315 34.5397 38.6293 34.058C38.0272 33.5763 37.5799 32.8538 37.3047 31.8904L34.965 32.8022C35.2918 33.9204 35.8079 34.8322 36.4961 35.5375C37.1842 36.2257 38.096 36.7074 39.1971 36.9654V38.8062V38.789Z" stroke="#006341" stroke-width="0.860181" stroke-miterlimit="10"/>
<path d="M2.47388 13.626H10.4564V5.64355" stroke="#006341" stroke-width="3.92857" stroke-miterlimit="10"/>
<path d="M37.6567 10.6959V5.29395H2.14844V49.0428H37.6567" stroke="#006341" stroke-width="5.10714" stroke-miterlimit="10"/>
<path d="M7.82031 34.1748H22.9079" stroke="#006341" stroke-width="3.92857" stroke-miterlimit="10"/>
<path d="M7.82031 26.2319H22.667" stroke="#006341" stroke-width="3.92857" stroke-miterlimit="10"/>
</g>
<defs>
<clipPath id="clip0_386_10165">
<rect width="55" height="48.0497" fill="white" transform="translate(0 3.14307)"/>
</clipPath>
</defs>
</svg>
