<svg width="55" height="55" viewBox="0 0 55 55" fill="none" xmlns="http://www.w3.org/2000/svg">
<path d="M21.5605 22.752C23.4082 27.707 27.3555 31.6543 32.3105 33.5859L36.5938 29.2188L50.0312 37.2812L43.3125 49.375H41.9688C21.9805 49.375 5.6875 33.166 5.6875 13.0938V11.75L17.7812 5.03125L25.8438 18.4688L21.5605 22.752ZM37.2656 34.3418C35.8379 35.7695 34.5781 37.0293 33.4023 38.2891L30.8828 37.3652C24.8359 35.0137 20.1328 30.2266 17.7812 24.1797L16.8574 21.7441C18.0332 20.5684 19.377 19.2246 20.8047 17.7969L16.3535 10.4902L9.80273 14.1016C10.3066 31.1504 23.9961 44.8398 40.9609 45.3438L44.6562 38.709L37.2656 34.3418Z" fill="#006341"/>
</svg>
