<svg width="55" height="56" viewBox="0 0 55 56" fill="none" xmlns="http://www.w3.org/2000/svg">
<g clip-path="url(#clip0_386_10199)">
<path d="M27.2683 48.3113C24.7225 51.094 21.1117 52.8224 17.1349 52.8224C9.39754 52.8224 3.14111 46.3064 3.14111 38.2867C3.14111 30.267 9.41418 23.751 17.1349 23.751C20.0801 23.751 22.8256 24.7016 25.0719 26.309M42.4268 43.8002V45.7533M42.4268 47.3434V49.2965M42.4268 50.8693V52.8224" stroke="#006341" stroke-width="3.92857" stroke-miterlimit="10"/>
<path d="M17.284 47.3224V44.1673M17.284 44.1673C15.5519 44.1673 14.1411 42.8553 14.1411 41.2309M17.284 44.1673C19.016 44.1673 20.4268 42.8553 20.4268 41.2309C20.4268 39.6065 19.3233 38.2945 17.284 38.2945C15.2446 38.2945 14.1411 36.9825 14.1411 35.3581C14.1411 33.7337 15.5519 32.4217 17.284 32.4217C19.016 32.4217 20.4268 33.7337 20.4268 35.3581M17.284 32.4061V29.251" stroke="#006341" stroke-width="3.14286" stroke-linejoin="round"/>
<path d="M45.8334 41.3321V34.1662H52.5153V33.8498L39.654 19.7415L26.7928 33.8498V34.1662H34.0144V53.1696M29.3985 20.5977V12.7246H34.1261V12.5199L22.9213 2.50635L11.698 12.5385V12.7432H16.8164V17.2661" stroke="#006341" stroke-width="3.7225" stroke-miterlimit="10"/>
</g>
<defs>
<clipPath id="clip0_386_10199">
<rect width="54.3672" height="55" fill="white" transform="translate(0.00610352)"/>
</clipPath>
</defs>
</svg>
