<svg width="55" height="55" viewBox="0 0 55 55" fill="none" xmlns="http://www.w3.org/2000/svg">
<g clip-path="url(#clip0_386_10190)">
<path d="M6.85186 40.078C0.935068 30.7727 2.08086 18.3285 10.2704 10.212C19.7937 0.795235 35.2525 0.795235 44.7757 10.212" stroke="#006341" stroke-width="5.10714" stroke-miterlimit="10"/>
<path d="M48.1294 14.9351C54.0464 24.2403 52.9006 36.6845 44.6919 44.8011C35.1684 54.2178 19.7279 54.2178 10.2043 44.8011" stroke="#006341" stroke-width="5.10714" stroke-miterlimit="10"/>
<path d="M14.139 42.4292H7.85327V48.7149" fill="#006341"/>
<path d="M40.0681 11.7167L46.2856 12.6396L47.2086 6.42207" fill="#006341"/>
</g>
<path d="M33.7371 36.4503C33.7868 35.9034 34.085 33.6416 31.9732 31.6531L27.526 27.5022L23.0788 31.6531C20.9421 33.6416 21.2402 35.9531 21.3148 36.4503C19.352 34.8098 18.1098 32.4237 18.1098 29.7392C18.1098 25.0415 21.4638 21.3132 24.4452 18.927C24.793 21.8849 27.4763 24.2213 30.7061 24.2213C31.9235 24.2213 33.116 23.8733 34.1347 23.2271C35.9235 24.9172 36.967 27.2537 36.967 29.7144C36.967 32.3739 35.7247 34.7849 33.762 36.4254L33.7371 36.4503ZM27.5011 38.6873C25.762 38.6873 24.3707 37.3948 24.3707 35.804C24.3707 35.0335 24.6937 34.3375 25.2899 33.7659L27.526 31.678L29.762 33.7659C30.3334 34.3127 30.6564 35.0335 30.6564 35.804C30.6564 37.3948 29.2402 38.6873 27.526 38.6873H27.5011ZM33.7868 19.3247L33.0912 20.145C32.4204 20.9155 31.5508 21.2635 30.6812 21.2635C29.0912 21.2635 27.5011 20.0953 27.5011 18.2808V13.3594C27.5011 13.3594 14.9297 19.3247 14.9297 29.7392C14.9297 36.326 20.5446 41.6451 27.5011 41.6451C34.4576 41.6451 40.0725 36.3011 40.0725 29.7392C40.0725 25.3398 37.5384 21.3629 33.7868 19.2999V19.3247Z" fill="#006341" stroke="#006341" stroke-width="0.577933" stroke-miterlimit="10"/>
<defs>
<clipPath id="clip0_386_10190">
<rect width="55" height="55" fill="white"/>
</clipPath>
</defs>
</svg>
