<svg width="512" height="512" viewBox="0 0 512 512" fill="none" xmlns="http://www.w3.org/2000/svg">
<path d="M379.006 190.589L264.558 308.398L189.154 230.78C170.918 249.551 170.918 280.068 189.154 298.839L264.558 376.457L396.123 241.029C400.374 277.65 388.963 315.768 361.665 343.867L264.558 443.825L167.45 343.867C120.239 295.269 120.239 216.615 167.45 168.018L264.558 68.0594L357.973 164.218C376.209 145.447 376.209 114.929 357.973 96.1583L264.558 0L134.335 134.046C68.9997 201.299 68.9997 310.701 134.335 377.954L264.558 512L394.78 377.954C453.403 317.61 459.332 223.295 412.792 156.041L379.118 190.704L379.006 190.589Z" fill="#009F4D"/>
</svg>
