<svg width="250" height="68" viewBox="0 0 250 68" fill="none" xmlns="http://www.w3.org/2000/svg">
<g clip-path="url(#clip0_206_43120)">
<g clip-path="url(#clip1_206_43120)">
<mask id="mask0_206_43120" style="mask-type:luminance" maskUnits="userSpaceOnUse" x="0" y="0" width="250" height="69">
<path d="M250 0.164062H0V68.1641H250V0.164062Z" fill="white"/>
</mask>
<g mask="url(#mask0_206_43120)">
<path d="M69.0575 27.0414C73.5518 27.0414 74.8085 22.9072 74.8085 22.9072H68.88V19.1286H79.4655V30.9979H76.42L75.5181 28.8344C75.5181 28.8344 73.0048 31.1757 69.0575 31.1757C63.129 31.1757 58.1172 26.1375 58.1172 19.6621C58.1172 13.1866 63.1438 8.14844 69.0575 8.14844C74.2615 8.14844 78.0314 11.927 79.1107 16.2391H74.6311C74.0989 14.2683 72.1178 12.2827 69.0722 12.2827C65.4797 12.2827 62.4342 15.3352 62.4342 19.6621C62.4342 23.9889 65.4797 27.0414 69.0722 27.0414" fill="#006341"/>
<path d="M91.4857 14.4426V18.7547C91.4857 18.7547 90.9535 18.5769 90.0516 18.5769C88.0706 18.5769 86.6365 20.0142 86.6365 22.1777V30.9944H82.5117V14.4426H85.5573L86.2669 16.2356C86.2669 16.2356 87.701 14.25 90.2143 14.25C90.9387 14.25 91.4709 14.4278 91.4709 14.4278" fill="#006341"/>
<path d="M108.679 22.7111C108.679 17.673 105.087 14.25 100.785 14.25C96.4825 14.25 92.5352 18.0286 92.5352 22.7111C92.5352 27.3936 96.3051 31.1574 100.785 31.1574C104.555 31.1574 107.245 28.4605 108.147 25.9414H103.845C103.845 25.9414 102.943 27.201 100.799 27.201C98.6558 27.201 97.3844 25.9414 97.0295 24.3263H108.517C108.517 24.3263 108.694 23.4224 108.694 22.7111M96.8226 21.4516C97.1774 19.6586 98.6114 18.2212 100.77 18.2212C102.928 18.2212 104.362 19.6586 104.717 21.4516H96.8226Z" fill="#006341"/>
<path d="M126.552 22.7111C126.552 17.673 122.96 14.25 118.658 14.25C114.356 14.25 110.408 18.0286 110.408 22.7111C110.408 27.3936 114.178 31.1574 118.658 31.1574C122.428 31.1574 125.118 28.4605 126.02 25.9414H121.718C121.718 25.9414 120.816 27.201 118.673 27.201C116.529 27.201 115.257 25.9414 114.903 24.3263H126.39C126.39 24.3263 126.567 23.4224 126.567 22.7111M114.71 21.4516C115.065 19.6586 116.499 18.2212 118.658 18.2212C120.816 18.2212 122.25 19.6586 122.605 21.4516H114.71Z" fill="#006341"/>
<path d="M144.295 21.2738V30.9796H140.17V21.8072C140.17 19.6438 138.736 18.2064 136.755 18.2064C134.774 18.2064 133.34 19.6438 133.34 21.8072V30.9796H129.215V14.4278H132.26L132.985 16.043C132.985 16.043 134.951 14.25 137.657 14.25C141.604 14.25 144.295 16.9469 144.295 21.2589" fill="#006341"/>
<path d="M156.358 8.32812H147.916V30.9997H152.218V23.4425H156.343C160.645 23.4425 164.06 20.0196 164.06 15.8853C164.06 11.7511 160.645 8.32812 156.343 8.32812M156.358 19.3083H152.233V12.4772H156.358C158.147 12.4772 159.773 14.0923 159.773 15.9001C159.773 17.7079 158.161 19.3231 156.358 19.3231" fill="#006341"/>
<path d="M172.753 14.2656C168.258 14.2656 164.488 18.0442 164.488 22.7119C164.488 27.3796 168.258 31.173 172.753 31.173C177.247 31.173 181.002 27.3944 181.002 22.7119C181.002 18.0294 177.232 14.2656 172.753 14.2656ZM172.753 27.2166C170.417 27.2166 168.628 25.4236 168.628 22.7119C168.628 20.0002 170.417 18.2072 172.753 18.2072C175.089 18.2072 176.877 20.0002 176.877 22.7119C176.877 25.4236 175.089 27.2166 172.753 27.2166Z" fill="#006341"/>
<path d="M192.889 21.0986L189.843 30.9971H186.251L180.869 14.4453H184.994L188.217 25.055L191.632 14.4453H194.145L197.56 25.055L200.783 14.4453H204.908L199.527 30.9971H195.934L192.889 21.0986Z" fill="#006341"/>
<path d="M221.099 22.7111C221.099 17.673 217.506 14.25 213.204 14.25C208.902 14.25 204.939 18.0286 204.939 22.7111C204.939 27.3936 208.709 31.1574 213.204 31.1574C216.974 31.1574 219.664 28.4605 220.566 25.9414H216.264C216.264 25.9414 215.362 27.201 213.219 27.201C211.075 27.201 209.803 25.9414 209.449 24.3263H220.936C220.936 24.3263 221.113 23.4224 221.113 22.7111M209.256 21.4516C209.611 19.6586 211.045 18.2212 213.204 18.2212C215.362 18.2212 216.796 19.6586 217.151 21.4516H209.256Z" fill="#006341"/>
</g>
<mask id="mask1_206_43120" style="mask-type:luminance" maskUnits="userSpaceOnUse" x="0" y="0" width="250" height="67">
<path d="M249.997 0.164062H0.0117188V66.0303H249.997V0.164062Z" fill="white"/>
</mask>
<g mask="url(#mask1_206_43120)">
<path d="M232.55 14.4504V18.7625C232.55 18.7625 232.018 18.5847 231.116 18.5847C229.135 18.5847 227.701 20.022 227.701 22.1855V31.0022H223.576V14.4504H226.622L227.346 16.2434C227.346 16.2434 228.78 14.2578 231.294 14.2578C232.018 14.2578 232.55 14.4356 232.55 14.4356" fill="#006341"/>
<path d="M38.8045 24.6879L23.6803 39.8468L13.7158 29.8594C11.306 32.2748 11.306 36.2015 13.7158 38.6169L23.6803 48.6042L41.0665 31.1782C41.6283 35.8904 40.1203 40.7951 36.5129 44.4107L23.6803 57.2728L10.8477 44.4107C4.60875 38.1575 4.60875 28.0368 10.8477 21.7836L23.6803 8.92153L36.0251 21.2946C38.4349 18.8793 38.4349 14.9525 36.0251 12.5371L23.6803 0.164062L6.47155 17.4123C-2.16239 26.066 -2.16239 40.1431 6.47155 48.7969L23.6803 66.0451L40.8891 48.7969C48.6359 41.0322 49.4195 28.8962 43.2693 20.2425L38.8193 24.7027L38.8045 24.6879Z" fill="#006341"/>
</g>
<mask id="mask2_206_43120" style="mask-type:luminance" maskUnits="userSpaceOnUse" x="0" y="0" width="250" height="69">
<path d="M250 0.164062H0V68.1641H250V0.164062Z" fill="white"/>
</mask>
<g mask="url(#mask2_206_43120)">
<path d="M64.0147 45.7998H61.9597V51.0602H59.2246V36.6719H64.9165C67.6516 36.6719 69.7066 38.7316 69.7066 41.1321C69.7066 44.3328 66.6315 45.3552 66.6315 45.3552L70.0466 51.0602H66.9715L64.0147 45.7998ZM61.9597 43.1622H64.9165C66.0549 43.1622 66.9715 42.2435 66.9715 41.221C66.9715 40.1986 66.0549 39.2799 64.9165 39.2799H61.9597V43.1622Z" fill="#006341"/>
<path d="M81.1057 47.8465C80.5291 49.4469 78.829 51.1658 76.4339 51.1658C73.5806 51.1658 71.1855 48.7652 71.1855 45.8016C71.1855 42.838 73.5806 40.4375 76.4339 40.4375C79.2873 40.4375 81.4457 42.6158 81.4457 45.8016C81.4457 46.261 81.3275 46.8241 81.3275 46.8241H74.0389C74.2607 47.8465 75.059 48.6467 76.4339 48.6467C77.8088 48.6467 78.3706 47.8465 78.3706 47.8465H81.1057ZM73.9206 45.0015H78.9324C78.7107 43.8605 77.7941 42.9417 76.4191 42.9417C75.0442 42.9417 74.1424 43.8605 73.9058 45.0015" fill="#006341"/>
<path d="M92.9482 44.8821V51.0464H90.3314V45.2229C90.3314 43.8597 89.4147 42.9409 88.1729 42.9409C86.931 42.9409 85.9996 43.8597 85.9996 45.2229V51.0464H83.3828V40.5404H85.3195L85.7778 41.5629C85.7778 41.5629 87.0345 40.4219 88.7347 40.4219C91.248 40.4219 92.9482 42.1408 92.9482 44.8821Z" fill="#006341"/>
<path d="M104.701 47.8465C104.125 49.4469 102.425 51.1658 100.03 51.1658C97.1763 51.1658 94.7812 48.7652 94.7812 45.8016C94.7812 42.838 97.1763 40.4375 100.03 40.4375C102.883 40.4375 105.041 42.6158 105.041 45.8016C105.041 46.261 104.923 46.8241 104.923 46.8241H97.6346C97.8564 47.8465 98.6547 48.6467 100.03 48.6467C101.405 48.6467 101.966 47.8465 101.966 47.8465H104.701ZM97.5163 45.0015H102.528C102.306 43.8605 101.39 42.9417 100.015 42.9417C98.6399 42.9417 97.7381 43.8605 97.5015 45.0015" fill="#006341"/>
<path d="M113.468 44.7622L111.532 51.0451H109.255L105.84 40.5391H108.457L110.512 47.2813L112.67 40.5391H114.267L116.425 47.2813L118.48 40.5391H121.112L117.682 51.0451H115.405L113.468 44.7622Z" fill="#006341"/>
<path d="M130.899 44.5421V51.0472H128.962L128.504 50.0248C128.504 50.0248 127.366 51.1658 125.547 51.1658C123.27 51.1658 122.014 49.9062 122.014 48.2022C122.014 46.1424 123.492 44.6606 128.282 44.6606C128.282 43.5197 127.602 42.838 126.567 42.838C125.207 42.838 124.971 43.979 124.971 43.979H122.354C122.575 42.0378 124.172 40.4375 126.804 40.4375C129.199 40.4375 130.899 42.1564 130.899 44.5569M128.282 46.9426V46.4833C125.207 46.4833 124.63 47.0612 124.63 47.9651C124.63 48.543 125.207 49.1061 125.991 49.1061C127.366 49.1061 128.267 48.1873 128.267 46.9426" fill="#006341"/>
<path d="M135.688 50.0299L135.23 51.0524H133.293V36.6641H135.91V41.4651C135.91 41.4651 136.93 40.4427 138.645 40.4427C141.262 40.4427 143.553 42.7246 143.553 45.8068C143.553 48.8889 141.276 51.1709 138.645 51.1709C136.826 51.1709 135.688 50.0299 135.688 50.0299ZM138.32 48.6519C139.798 48.6519 140.936 47.5109 140.936 45.792C140.936 44.0731 139.798 42.9321 138.32 42.9321C136.841 42.9321 135.703 44.0731 135.703 45.792C135.703 47.5109 136.841 48.6519 138.32 48.6519Z" fill="#006341"/>
<path d="M148.107 36.6641H145.49V51.0524H148.107V36.6641Z" fill="#006341"/>
<path d="M159.963 47.8465C159.387 49.4469 157.686 51.1658 155.291 51.1658C152.438 51.1658 150.043 48.7652 150.043 45.8016C150.043 42.838 152.438 40.4375 155.291 40.4375C158.145 40.4375 160.303 42.6158 160.303 45.8016C160.303 46.261 160.185 46.8241 160.185 46.8241H152.896C153.118 47.8465 153.916 48.6467 155.291 48.6467C156.666 48.6467 157.228 47.8465 157.228 47.8465H159.963ZM152.778 45.0015H157.79C157.568 43.8605 156.651 42.9417 155.277 42.9417C153.902 42.9417 153 43.8605 152.763 45.0015" fill="#006341"/>
<path d="M177.749 48.4296V51.0524H167.607V36.6641H177.513V39.2869H170.342V42.369H176.951V45.0066H170.342V48.4296H177.749Z" fill="#006341"/>
<path d="M189.37 44.8821V51.0464H186.753V45.2229C186.753 43.8597 185.837 42.9409 184.58 42.9409C183.323 42.9409 182.421 43.8597 182.421 45.2229V51.0464H179.805V40.5404H181.741L182.2 41.5629C182.2 41.5629 183.456 40.4219 185.157 40.4219C187.67 40.4219 189.37 42.1408 189.37 44.8821Z" fill="#006341"/>
<path d="M201.108 47.8465C200.531 49.4469 198.831 51.1658 196.436 51.1658C193.583 51.1658 191.188 48.7652 191.188 45.8016C191.188 42.838 193.583 40.4375 196.436 40.4375C199.289 40.4375 201.448 42.6158 201.448 45.8016C201.448 46.261 201.329 46.8241 201.329 46.8241H194.041C194.263 47.8465 195.061 48.6467 196.436 48.6467C197.811 48.6467 198.373 47.8465 198.373 47.8465H201.108ZM193.923 45.0015H198.934C198.713 43.8605 197.796 42.9417 196.421 42.9417C195.046 42.9417 194.144 43.8605 193.908 45.0015" fill="#006341"/>
<path d="M209.092 40.5404V43.2818C209.092 43.2818 208.752 43.1632 208.176 43.1632C206.919 43.1632 206.017 44.0819 206.017 45.4452V51.0464H203.4V40.5404H205.337L205.795 41.6814C205.795 41.6814 206.712 40.4219 208.309 40.4219C208.767 40.4219 209.107 40.5404 209.107 40.5404" fill="#006341"/>
<path d="M217.858 41.5629L218.317 40.5404H220.253V50.3648C220.253 53.1061 218.435 54.9287 215.241 54.9287C211.368 54.9287 210.57 51.5058 210.57 51.5058H213.186C213.186 51.5058 213.645 52.5282 215.241 52.5282C216.72 52.5282 217.636 51.6095 217.636 50.3648V49.5646C217.636 49.5646 216.616 50.7056 214.901 50.7056C212.285 50.7056 210.111 48.5273 210.111 45.5637C210.111 42.6001 212.27 40.4219 214.901 40.4219C216.72 40.4219 217.858 41.5629 217.858 41.5629ZM215.241 48.2013C216.616 48.2013 217.755 47.0604 217.755 45.5786C217.755 44.0967 216.616 42.9558 215.241 42.9558C213.867 42.9558 212.728 44.0967 212.728 45.5786C212.728 47.0604 213.867 48.2013 215.241 48.2013Z" fill="#006341"/>
<path d="M221.628 40.5391H224.363L226.98 47.385L229.375 40.5391H232.11C232.11 40.5391 228.118 50.8228 227.897 51.3859C226.876 53.9049 225.96 54.8088 224.245 54.8088C223.787 54.8088 223.328 54.6903 223.328 54.6903V52.5269C224.467 52.5269 225.058 51.9638 225.383 51.1636L225.605 50.5857L221.613 40.5391H221.628Z" fill="#006341"/>
<path d="M243.539 8.32812C240.035 8.32812 237.078 11.3066 237.078 15.1296C237.078 18.9527 240.05 21.9311 243.539 21.9311C247.028 21.9311 249.999 18.9527 249.999 15.1296C249.999 11.3066 247.028 8.32812 243.539 8.32812ZM243.539 20.7605C240.789 20.7605 238.35 18.3155 238.35 15.1296C238.35 11.9437 240.789 9.49875 243.539 9.49875C246.289 9.49875 248.728 11.9437 248.728 15.1296C248.728 18.3155 246.289 20.7605 243.539 20.7605Z" fill="#006341"/>
<path d="M244.485 15.87C244.485 15.87 246.082 15.4402 246.082 13.8547C246.082 12.6841 245.017 11.6172 243.746 11.6172H241.307V18.6261H242.475V16.0774H243.317L245.017 18.6261H246.289L244.485 15.87ZM242.475 15.0253V12.6841H243.746C244.382 12.6841 244.914 13.2175 244.914 13.8547C244.914 14.4919 244.382 15.0253 243.746 15.0253H242.475Z" fill="#006341"/>
</g>
</g>
</g>
<defs>
<clipPath id="clip0_206_43120">
<rect width="250" height="68" fill="white"/>
</clipPath>
<clipPath id="clip1_206_43120">
<rect width="250" height="68" fill="white" transform="translate(0 0.164062)"/>
</clipPath>
</defs>
</svg>
