<svg width="56" height="55" viewBox="0 0 56 55" fill="none" xmlns="http://www.w3.org/2000/svg">
<path d="M2.87915 13.626H10.8616V5.64355" stroke="#006341" stroke-width="3.92857" stroke-miterlimit="10"/>
<path d="M39.6152 2.74023V20.6963L35.5088 16.6963V6.84766H4.10742V47.4893H23.0615L27.0615 51.5967H0V2.74023H39.6152Z" fill="#006341"/>
<path d="M11.4053 27.0386V30.9663H7.40527V27.0386H11.4053Z" fill="#006341"/>
<path d="M11.4053 35.0386V38.9663H7.40527V35.0386H11.4053Z" fill="#006341"/>
<path d="M21.4053 27.0386C20.9053 27.4995 19.9053 28.9995 19.4053 30.9663H13.4053V27.0386H21.4053Z" fill="#006341"/>
<path d="M18.4053 35.0386C18.4053 35.9995 17.9053 36.9995 18.4053 38.9663H13.4053V35.0386H18.4053Z" fill="#006341"/>
<path d="M11.4053 19.0386V22.9663H7.40527V19.0386H11.4053Z" fill="#006341"/>
<path d="M29.4053 19.0386L25.4053 22.9663H13.4053V19.0386H29.4053Z" fill="#006341"/>
<path d="M41.7466 31.9158L33.8741 39.7883L28.6873 34.6015C27.433 35.8559 27.433 37.8952 28.6873 39.1495L33.8741 44.3363L42.924 35.2864C43.2165 37.7336 42.4315 40.2808 40.5538 42.1585L33.8741 48.8382L27.1944 42.1585C23.9469 38.911 23.9469 33.6549 27.1944 30.4074L33.8741 23.7277L40.2999 30.1535C41.5542 28.8991 41.5542 26.8598 40.2999 25.6054L33.8741 19.1797L24.9165 28.1373C20.4224 32.6314 20.4224 39.9422 24.9165 44.4364L33.8741 53.3939L42.8317 44.4364C46.8641 40.4039 47.272 34.1013 44.0707 29.6071L41.7543 31.9235L41.7466 31.9158Z" fill="#006341"/>
</svg>
