<svg width="55" height="55" viewBox="0 0 55 55" fill="none" xmlns="http://www.w3.org/2000/svg">
<path d="M9.30205 5.48917V44.3784H17.893V33.9082H24.1572C23.7992 35.3105 23.6202 36.8062 23.6202 38.3954C23.6202 42.3217 26.2538 45.9508 29.2964 48.8656H5.00659V1.00195H39.3702V16.8582L35.0748 20.7917V5.48917H9.30205ZM30.7793 21.9423V23.812L26.8418 27.9252H25.052V21.9423H30.7793ZM13.5975 9.97639H19.3248V15.9593H13.5975V9.97639ZM30.7793 9.97639V15.9593H25.052V9.97639H30.7793ZM13.5975 21.9423H19.3248V27.9252H13.5975V21.9423Z" fill="#006341"/>
<path d="M46.3467 32.9143L38.4742 40.7868L33.2874 35.6C32.0331 36.8544 32.0331 38.8937 33.2874 40.1481L38.4742 45.3349L47.5241 36.2849C47.8166 38.7321 47.0316 41.2793 45.1539 43.157L38.4742 49.8367L31.7945 43.157C28.547 39.9095 28.547 34.6535 31.7945 31.406L38.4742 24.7263L44.9 31.152C46.1543 29.8977 46.1543 27.8583 44.9 26.604L38.4742 20.1782L29.5166 29.1358C25.0225 33.63 25.0225 40.9407 29.5166 45.4349L38.4742 54.3925L47.4318 45.4349C51.4642 41.4024 51.8721 35.0998 48.6708 30.6056L46.3544 32.922L46.3467 32.9143Z" fill="#006341"/>
</svg>
