<svg width="55" height="55" viewBox="0 0 55 55" fill="none" xmlns="http://www.w3.org/2000/svg">
<path d="M39.776 20.4735L27.0027 33.1287L18.5871 24.7908C16.5518 26.8072 16.5518 30.0855 18.5871 32.1019L27.0027 40.4397L41.6863 25.8918C42.1608 29.8257 40.8872 33.9204 37.8406 36.9388L27.0027 47.6766L16.1648 36.9388C10.8957 31.7184 10.8957 23.2692 16.1648 18.0488L27.0027 7.31107L37.4286 17.6406C39.4638 15.6242 39.4638 12.3459 37.4286 10.3295L27.0027 0L12.4689 14.3995C5.17703 21.6239 5.17703 33.3761 12.4689 40.6005L27.0027 55L41.5365 40.6005C48.0792 34.1183 48.741 23.9867 43.5468 16.7623L39.7884 20.4858L39.776 20.4735Z" fill="#006341"/>
</svg>
