<svg width="55" height="55" viewBox="0 0 55 55" fill="none" xmlns="http://www.w3.org/2000/svg">
<path d="M46.9053 32.5217L39.0328 40.3942L33.846 35.2075C32.5917 36.4618 32.5917 38.5011 33.846 39.7555L39.0328 44.9423L48.0827 35.8924C48.3752 38.3395 47.5902 40.8867 45.7125 42.7644L39.0328 49.4442L32.3531 42.7644C29.1056 39.5169 29.1056 34.2609 32.3531 31.0134L39.0328 24.3337L45.4586 30.7594C46.7129 29.5051 46.7129 27.4658 45.4586 26.2114L39.0328 19.7856L30.0752 28.7432C25.581 33.2374 25.581 40.5481 30.0752 45.0423L39.0328 53.9999L47.9904 45.0423C52.0228 41.0099 52.4307 34.7072 49.2294 30.2131L46.913 32.5294L46.9053 32.5217Z" fill="#006341"/>
<path d="M52.0938 21.9068L31.4359 1.28864L29.9567 0L28.4775 1.28864L4.57458 20.4341L3.00293 21.9068L5.96133 25.2205C7.16318 24.1159 7.99523 23.3795 8.27257 23.1034V47.8636H29.3893L26.023 43.4455H12.7102V19.1455L29.9567 5.89091L49.1354 25.2205L52.0938 21.9068Z" fill="#006341"/>
<path d="M23.8666 25.7729H17.7302V34.3639H23.8666V25.7729Z" fill="#006341"/>
</svg>
