<svg width="55" height="55" viewBox="0 0 55 55" fill="none" xmlns="http://www.w3.org/2000/svg">
<g clip-path="url(#clip0_386_10212)">
<path d="M37.427 8.28487C45.4605 16.2631 45.4605 29.1793 37.427 37.1576C29.3935 45.1358 16.3667 45.1358 8.33323 37.1576C0.29973 29.1793 0.29973 16.2631 8.33323 8.28487C16.3667 0.306642 29.3935 0.325067 37.427 8.28487Z" stroke="#006341" stroke-width="5.10714" stroke-linejoin="round"/>
<path d="M40.0011 33.9761L52.4936 49.5087C53.3965 50.7617 50.7616 53.3965 49.4903 52.4937L33.8286 40.0012" stroke="#006341" stroke-width="3.92857" stroke-linejoin="round"/>
<path d="M17.5496 26.8748C17.5496 29.1412 19.4658 30.9837 21.8243 30.9837H23.9616C26.3201 30.9837 28.2363 29.1412 28.2363 26.8748C28.2363 24.6085 26.3201 22.766 23.9616 22.766H21.8243C19.4658 22.766 17.5496 20.9234 17.5496 18.6571C17.5496 16.3908 19.4658 14.5298 21.8243 14.5298H23.9616C26.3201 14.5298 28.2363 16.3723 28.2363 18.6571" stroke="#006341" stroke-width="3.92857" stroke-linejoin="round"/>
<path d="M22.8901 31.1094V35.4762" stroke="#006341" stroke-width="3.92857" stroke-linejoin="round"/>
<path d="M22.8901 10.0791V14.3354" stroke="#006341" stroke-width="3.92857" stroke-linejoin="round"/>
</g>
<defs>
<clipPath id="clip0_386_10212">
<rect width="55" height="55" fill="white"/>
</clipPath>
</defs>
</svg>
