<svg width="55" height="55" viewBox="0 0 55 55" fill="none" xmlns="http://www.w3.org/2000/svg">
<g clip-path="url(#clip0_386_10204)">
<path d="M23.853 43.255C22.4548 44.1814 20.9387 44.9058 19.3047 45.4448C15.0597 44.013 11.5727 41.3177 8.8438 37.3759C6.11485 33.4173 4.75038 28.987 4.75038 24.085V12.9334L19.2879 7.44178L28.3001 10.6761L32.8147 12.1753C33.4548 9.37899 32.2756 7.22279 30.0184 6.38053L19.3216 2.35449L0 9.64852V24.1018C0 30.1661 1.8193 35.7251 5.45789 40.7955C8.59112 45.1585 12.4655 48.1401 17.0643 49.7236C18.513 50.2289 20.1133 50.2289 21.562 49.7236C23.0781 49.2014 24.5268 48.5275 25.8744 47.7021L23.853 43.255Z" fill="#006341"/>
<path d="M40.372 49.8395C38.637 49.8395 37.0198 49.5026 35.4869 48.8625C33.9708 48.2055 32.64 47.3127 31.5114 46.1841C30.3828 45.0555 29.49 43.7415 28.833 42.2086C28.176 40.6925 27.856 39.0585 27.856 37.3235C27.856 35.5884 28.176 33.9712 28.833 32.4383C29.49 30.9222 30.3828 29.5914 31.5114 28.4628C32.64 27.3342 33.9708 26.4414 35.4869 25.7844C37.003 25.1274 38.637 24.7905 40.372 24.7905C42.1071 24.7905 43.7243 25.1274 45.2572 25.7844C46.7733 26.4414 48.104 27.3342 49.2327 28.4628C50.3613 29.5914 51.2541 30.9222 51.9111 32.4383C52.5681 33.9544 52.8881 35.5884 52.8881 37.3235C52.8881 39.0585 52.5681 40.6757 51.9111 42.2086C51.2541 43.7247 50.3613 45.0555 49.2327 46.1841C48.104 47.3127 46.7733 48.2055 45.2572 48.8625C43.7411 49.5195 42.1071 49.8395 40.372 49.8395Z" stroke="#006341" stroke-width="4.21133" stroke-miterlimit="10"/>
<path d="M37.1863 39.7789C37.1863 41.1434 38.3318 42.272 39.7299 42.272H41.0102C42.4083 42.272 43.5538 41.1602 43.5538 39.7789C43.5538 38.3976 42.4083 37.2858 41.0102 37.2858H39.7299C38.3318 37.2858 37.1863 36.174 37.1863 34.8095C37.1863 33.445 38.3318 32.3164 39.7299 32.3164H41.0102C42.4083 32.3164 43.5538 33.4282 43.5538 34.8095" stroke="#006341" stroke-width="3.14286" stroke-linejoin="round"/>
<path d="M40.3723 42.4814V46.777" stroke="#006341" stroke-width="3.14286" stroke-linejoin="round"/>
<path d="M40.3723 28.001V30.9489" stroke="#006341" stroke-width="3.14286" stroke-linejoin="round"/>
<path d="M38.1956 10.6724L16.9537 28.1073L11.4453 22.5652C9.55858 24.4687 9.54174 27.5345 11.4453 29.4381L16.8526 34.8959L38.3641 16.5008L38.2125 10.6892L38.1956 10.6724Z" fill="#006341"/>
</g>
<defs>
<clipPath id="clip0_386_10204">
<rect width="55" height="49.5926" fill="white" transform="translate(0 2.35693)"/>
</clipPath>
</defs>
</svg>
